<svg width="1041" height="182" viewBox="0 0 1041 182" fill="none" xmlns="http://www.w3.org/2000/svg">
<path fill-rule="evenodd" clip-rule="evenodd" d="M329.837 131.183H287.02C286.027 131.184 285.059 131.497 284.254 132.078C283.448 132.66 282.847 133.48 282.534 134.423L275.444 155.758C275.131 156.701 274.529 157.521 273.724 158.103C272.919 158.685 271.95 158.998 270.957 158.998H251.68C250.916 158.998 250.164 158.812 249.487 158.458C248.81 158.104 248.23 157.591 247.794 156.963C247.359 156.336 247.082 155.612 246.987 154.854C246.892 154.096 246.982 153.327 247.249 152.611L293.837 27.086C294.172 26.181 294.776 25.4002 295.568 24.8485C296.36 24.2969 297.302 24.0008 298.267 24H317.4C318.364 24.0004 319.305 24.2954 320.096 24.8455C320.888 25.3956 321.493 26.1746 321.829 27.078L368.675 152.603C369.114 153.779 369.069 155.082 368.549 156.225C368.029 157.367 367.077 158.257 365.902 158.699C365.372 158.897 364.812 158.999 364.246 158.999H344.971C343.98 158.999 343.014 158.687 342.21 158.108C341.406 157.529 340.804 156.712 340.489 155.772L333.319 134.41C332.672 132.482 331.868 131.183 329.837 131.183V131.183ZM297.648 108.653H318.175C318.926 108.653 319.666 108.474 320.335 108.131C321.003 107.788 321.58 107.291 322.018 106.681C322.456 106.071 322.743 105.365 322.854 104.622C322.965 103.879 322.898 103.121 322.658 102.409L312.338 71.584C312.023 70.6424 311.42 69.8238 310.614 69.2443C309.808 68.6647 308.84 68.3537 307.848 68.3554C306.855 68.3571 305.888 68.6713 305.084 69.2535C304.28 69.8357 303.679 70.6564 303.368 71.599L293.161 102.424C292.926 103.135 292.862 103.892 292.976 104.632C293.09 105.373 293.377 106.075 293.815 106.683C294.253 107.291 294.828 107.786 295.495 108.128C296.161 108.471 296.899 108.65 297.648 108.652V108.653ZM406.031 158.999H387.754C387.132 158.998 386.517 158.876 385.943 158.637C385.369 158.399 384.848 158.05 384.409 157.61C383.97 157.17 383.622 156.648 383.384 156.073C383.147 155.499 383.025 154.883 383.026 154.262V28.737C383.025 28.1155 383.147 27.5 383.384 26.9255C383.622 26.3511 383.97 25.829 384.409 25.3892C384.848 24.9493 385.369 24.6002 385.943 24.3618C386.517 24.1235 387.132 24.0005 387.754 24H406.031C406.652 24.0005 407.268 24.1235 407.842 24.3618C408.416 24.6002 408.937 24.9493 409.376 25.3892C409.815 25.829 410.163 26.3511 410.401 26.9255C410.638 27.5 410.76 28.1155 410.759 28.737V154.262C410.76 154.883 410.638 155.499 410.401 156.073C410.163 156.648 409.815 157.17 409.376 157.61C408.937 158.05 408.416 158.399 407.842 158.637C407.268 158.876 406.652 158.998 406.031 158.999V158.999ZM481.026 109.579H466.553C465.932 109.58 465.316 109.702 464.742 109.941C464.168 110.179 463.647 110.528 463.208 110.968C462.769 111.408 462.421 111.93 462.183 112.505C461.946 113.079 461.824 113.695 461.825 114.316V154.262C461.826 154.884 461.704 155.499 461.467 156.074C461.229 156.648 460.881 157.17 460.442 157.61C460.003 158.05 459.481 158.399 458.907 158.637C458.333 158.876 457.718 158.999 457.096 158.999H438.82C438.199 158.998 437.583 158.876 437.009 158.637C436.435 158.399 435.914 158.05 435.475 157.61C435.036 157.17 434.688 156.648 434.45 156.073C434.213 155.499 434.091 154.883 434.092 154.262V28.737C434.091 28.1155 434.213 27.5 434.45 26.9255C434.688 26.3511 435.036 25.829 435.475 25.3892C435.914 24.9493 436.435 24.6002 437.009 24.3618C437.583 24.1235 438.199 24.0005 438.82 24H484.103C500.003 24 512.268 27.554 520.896 34.663C529.524 41.771 533.838 51.816 533.838 64.796C533.838 74.006 531.85 81.686 527.875 87.837C523.9 93.987 517.875 98.886 509.802 102.533L535.358 152.088C535.934 153.204 536.043 154.502 535.663 155.699C535.282 156.895 534.442 157.892 533.328 158.47C532.657 158.817 531.913 158.999 531.158 158.999H512.048C510.272 158.999 508.647 158.003 507.838 156.419L485.236 112.159C484.84 111.383 484.238 110.731 483.495 110.276C482.752 109.82 481.897 109.579 481.026 109.579V109.579ZM466.553 87.049H484.196C491.16 87.049 496.552 85.272 500.373 81.718C504.194 78.163 506.105 73.265 506.105 67.022C506.105 60.655 504.302 55.648 500.697 52.002C497.092 48.354 491.56 46.531 484.103 46.531H466.553C465.932 46.5315 465.316 46.6544 464.742 46.8927C464.169 47.131 463.647 47.48 463.208 47.9198C462.769 48.3596 462.421 48.8815 462.184 49.4558C461.946 50.0302 461.824 50.6456 461.825 51.267V82.312C461.824 82.9335 461.946 83.549 462.183 84.1235C462.421 84.6979 462.769 85.22 463.208 85.6599C463.647 86.0997 464.168 86.4488 464.742 86.6872C465.316 86.9255 465.932 87.0485 466.553 87.049V87.049ZM646.768 51.267H614.995C614.374 51.2675 613.758 51.3905 613.184 51.6288C612.61 51.8672 612.089 52.2163 611.65 52.6562C611.211 53.096 610.863 53.6181 610.625 54.1925C610.388 54.767 610.266 55.3825 610.267 56.004V154.262C610.268 154.883 610.146 155.499 609.909 156.073C609.671 156.648 609.323 157.17 608.884 157.61C608.445 158.05 607.924 158.399 607.35 158.637C606.776 158.876 606.161 158.998 605.539 158.999H587.262C586.641 158.998 586.025 158.876 585.451 158.637C584.877 158.399 584.356 158.05 583.917 157.61C583.478 157.17 583.13 156.648 582.892 156.073C582.655 155.499 582.533 154.883 582.534 154.262V56.004C582.535 55.3825 582.413 54.767 582.176 54.1925C581.938 53.6181 581.59 53.096 581.151 52.6562C580.712 52.2163 580.191 51.8672 579.617 51.6288C579.043 51.3905 578.428 51.2675 577.806 51.267H546.587C545.966 51.2665 545.35 51.1436 544.776 50.9053C544.203 50.667 543.681 50.318 543.242 49.8782C542.803 49.4384 542.455 48.9165 542.218 48.3422C541.98 47.7678 541.859 47.1524 541.859 46.531V28.737C541.858 28.1155 541.98 27.5 542.217 26.9255C542.455 26.3511 542.803 25.829 543.242 25.3892C543.681 24.9493 544.202 24.6002 544.776 24.3618C545.35 24.1235 545.965 24.0005 546.587 24H646.768C647.39 24.0004 648.005 24.1232 648.579 24.3615C649.153 24.5998 649.675 24.9489 650.114 25.3888C650.553 25.8287 650.901 26.3508 651.139 26.9253C651.376 27.4998 651.498 28.1154 651.497 28.737V46.53C651.498 47.1515 651.376 47.767 651.138 48.3414C650.901 48.9158 650.553 49.4378 650.114 49.8776C649.674 50.3173 649.153 50.6663 648.579 50.9046C648.005 51.1428 647.39 51.2656 646.768 51.266V51.267ZM713.866 131.193L672.048 131.183C671.054 131.183 670.086 131.497 669.281 132.078C668.475 132.66 667.874 133.481 667.561 134.424L660.471 155.758C660.158 156.701 659.557 157.521 658.751 158.103C657.946 158.684 656.978 158.997 655.985 158.998H636.707C635.943 158.998 635.191 158.813 634.514 158.458C633.837 158.104 633.256 157.591 632.82 156.964C632.385 156.336 632.108 155.612 632.013 154.854C631.918 154.096 632.008 153.327 632.275 152.611L678.863 27.086C679.198 26.1806 679.803 25.3996 680.595 24.8479C681.387 24.2963 682.33 24.0004 683.295 24H702.428C703.392 24.0006 704.332 24.2957 705.124 24.8458C705.915 25.3959 706.52 26.1748 706.856 27.078L753.702 152.603C754.141 153.779 754.096 155.082 753.576 156.225C753.056 157.367 752.104 158.257 750.929 158.699C750.399 158.897 749.839 158.999 749.273 158.999H729.998C729.007 158.999 728.041 158.687 727.237 158.108C726.433 157.529 725.831 156.712 725.516 155.772L718.346 134.419C718.031 133.48 717.429 132.663 716.626 132.084C715.822 131.506 714.857 131.194 713.866 131.193V131.193ZM682.676 108.653H703.202C703.953 108.653 704.693 108.474 705.362 108.131C706.03 107.788 706.607 107.291 707.045 106.681C707.483 106.071 707.77 105.365 707.881 104.622C707.992 103.879 707.925 103.121 707.685 102.409L697.365 71.584C697.05 70.6424 696.447 69.8238 695.641 69.2443C694.835 68.6647 693.867 68.3537 692.875 68.3554C691.882 68.3571 690.915 68.6713 690.111 69.2535C689.307 69.8357 688.706 70.6564 688.395 71.599L678.188 102.424C677.953 103.135 677.889 103.892 678.003 104.632C678.117 105.373 678.404 106.076 678.842 106.684C679.28 107.291 679.856 107.787 680.522 108.129C681.189 108.471 681.927 108.65 682.676 108.652V108.653ZM832.808 84.212C833.187 85.0313 833.793 85.725 834.554 86.2108C835.314 86.6965 836.199 86.9542 837.101 86.9531C838.004 86.9521 838.887 86.6924 839.647 86.2048C840.407 85.7173 841.011 85.0222 841.388 84.202L867.865 26.752C868.243 25.931 868.848 25.2354 869.609 24.7476C870.37 24.2599 871.254 24.0004 872.158 24H903.193C903.815 24.0005 904.43 24.1235 905.004 24.3618C905.578 24.6002 906.099 24.9493 906.538 25.3892C906.977 25.829 907.325 26.3511 907.563 26.9255C907.8 27.5 907.922 28.1155 907.921 28.737V154.263C907.922 154.884 907.8 155.5 907.563 156.074C907.325 156.649 906.977 157.171 906.538 157.611C906.099 158.051 905.578 158.4 905.004 158.638C904.43 158.877 903.815 158.999 903.193 159L884.823 158.999C884.202 158.998 883.586 158.876 883.012 158.637C882.438 158.399 881.917 158.05 881.478 157.61C881.039 157.17 880.691 156.648 880.453 156.073C880.216 155.499 880.094 154.883 880.095 154.262V79.952C880.096 79.3306 879.974 78.7152 879.736 78.1408C879.499 77.5665 879.151 77.0446 878.712 76.6048C878.273 76.165 877.751 75.816 877.178 75.5777C876.604 75.3394 875.988 75.2165 875.367 75.216C874.464 75.2165 873.579 75.4757 872.819 75.9631C872.058 76.4504 871.453 77.1455 871.075 77.966L847.805 128.443C847.427 129.264 846.822 129.959 846.061 130.446C845.301 130.933 844.416 131.193 843.513 131.193H830.52C829.616 131.193 828.732 130.933 827.971 130.445C827.21 129.958 826.605 129.262 826.227 128.441L803.042 78.085C802.783 77.5204 802.415 77.0126 801.959 76.5905C801.503 76.1683 800.968 75.8403 800.386 75.6251C799.803 75.4098 799.183 75.3117 798.563 75.3362C797.942 75.3607 797.332 75.5075 796.768 75.768C795.947 76.1478 795.252 76.7546 794.765 77.5167C794.278 78.2789 794.02 79.1646 794.02 80.069V122.096L794.03 154.262C794.031 154.883 793.909 155.499 793.672 156.074C793.435 156.648 793.087 157.17 792.648 157.61C792.209 158.05 791.688 158.399 791.114 158.638C790.54 158.876 789.925 158.999 789.303 159H771.023C770.402 158.999 769.786 158.876 769.213 158.638C768.639 158.399 768.117 158.05 767.678 157.61C767.239 157.171 766.892 156.649 766.654 156.074C766.417 155.5 766.295 154.884 766.296 154.263V28.737C766.295 28.1155 766.417 27.5 766.654 26.9255C766.892 26.3511 767.24 25.829 767.679 25.3892C768.118 24.9493 768.639 24.6002 769.213 24.3618C769.787 24.1235 770.403 24.0005 771.024 24H801.881C803.721 24 805.395 25.07 806.17 26.742L832.808 84.212V84.212ZM1006.03 100.493H962.237C961.616 100.494 961 100.616 960.426 100.855C959.852 101.093 959.331 101.442 958.892 101.882C958.453 102.322 958.105 102.844 957.867 103.419C957.63 103.993 957.508 104.609 957.509 105.23V131.917C957.508 132.538 957.63 133.154 957.868 133.728C958.105 134.302 958.453 134.824 958.892 135.264C959.331 135.704 959.853 136.053 960.426 136.291C961 136.53 961.616 136.652 962.237 136.653H1015.27C1015.89 136.654 1016.51 136.776 1017.08 137.015C1017.66 137.253 1018.18 137.602 1018.62 138.042C1019.06 138.482 1019.4 139.004 1019.64 139.579C1019.88 140.153 1020 140.769 1020 141.39V154.262C1020 154.883 1019.88 155.499 1019.64 156.073C1019.4 156.648 1019.06 157.17 1018.62 157.61C1018.18 158.05 1017.66 158.399 1017.08 158.637C1016.51 158.876 1015.89 158.998 1015.27 158.999H934.504C933.883 158.998 933.267 158.876 932.693 158.637C932.119 158.399 931.598 158.05 931.159 157.61C930.72 157.17 930.372 156.648 930.134 156.073C929.897 155.499 929.775 154.883 929.776 154.262V28.737C929.775 28.1155 929.897 27.5 930.134 26.9255C930.372 26.3511 930.72 25.829 931.159 25.3892C931.598 24.9493 932.119 24.6002 932.693 24.3618C933.267 24.1235 933.883 24.0005 934.504 24H1015.09C1015.71 24.0005 1016.32 24.1235 1016.9 24.3618C1017.47 24.6002 1017.99 24.9493 1018.43 25.3892C1018.87 25.829 1019.22 26.3511 1019.46 26.9255C1019.69 27.5 1019.82 28.1155 1019.82 28.737V41.794C1019.82 42.4155 1019.69 43.031 1019.46 43.6055C1019.22 44.1799 1018.87 44.702 1018.43 45.1418C1017.99 45.5817 1017.47 45.9308 1016.9 46.1692C1016.32 46.4075 1015.71 46.5305 1015.09 46.531H962.237C961.616 46.5315 961 46.6544 960.426 46.8927C959.853 47.131 959.331 47.48 958.892 47.9198C958.453 48.3596 958.105 48.8815 957.868 49.4558C957.63 50.0302 957.508 50.6456 957.509 51.267V73.967C957.508 74.5885 957.63 75.204 957.867 75.7785C958.105 76.3529 958.453 76.875 958.892 77.3148C959.331 77.7547 959.852 78.1038 960.426 78.3422C961 78.5805 961.616 78.7035 962.237 78.704H1006.03C1006.65 78.7044 1007.26 78.8272 1007.84 79.0655C1008.41 79.3038 1008.93 79.6529 1009.37 80.0928C1009.81 80.5327 1010.16 81.0548 1010.4 81.6293C1010.63 82.2038 1010.76 82.8194 1010.76 83.441V95.756C1010.76 96.3775 1010.63 96.993 1010.4 97.5675C1010.16 98.1419 1009.81 98.664 1009.37 99.1039C1008.93 99.5437 1008.41 99.8928 1007.84 100.131C1007.26 100.37 1006.65 100.492 1006.03 100.493V100.493ZM46.175 136.741L38.535 142.273C38.032 142.637 37.4619 142.899 36.8576 143.043C36.2533 143.187 35.6265 143.21 35.0132 143.111C34.3999 143.012 33.8121 142.793 33.2836 142.467C32.755 142.141 32.2961 141.713 31.933 141.209L20.891 125.84C20.1593 124.821 19.8609 123.555 20.061 122.316C20.2612 121.078 20.9436 119.97 21.959 119.234L29.614 113.69C56.037 94.556 91.413 93.54 118.882 111.126L125.468 115.342C134.106 120.876 144.211 123.678 154.466 123.383C164.72 123.089 174.648 119.711 182.954 113.69L190.594 108.158C191.097 107.794 191.667 107.532 192.271 107.388C192.876 107.244 193.503 107.221 194.116 107.32C194.729 107.419 195.317 107.638 195.845 107.964C196.374 108.29 196.833 108.718 197.196 109.222L208.238 124.591C208.97 125.61 209.268 126.876 209.068 128.115C208.868 129.353 208.185 130.461 207.17 131.197L199.515 136.741C173.092 155.875 137.717 156.891 110.247 139.305L103.661 135.089C95.0229 129.555 84.9176 126.753 74.6632 127.048C64.4087 127.342 54.4811 130.72 46.175 136.741V136.741ZM46.175 65.688L38.535 71.221C38.032 71.5855 37.4619 71.8471 36.8576 71.9909C36.2533 72.1347 35.6265 72.1578 35.0132 72.059C34.3999 71.9602 33.8121 71.7413 33.2836 71.4149C32.755 71.0885 32.2961 70.6611 31.933 70.157L20.891 54.787C20.1596 53.7685 19.8614 52.5018 20.0615 51.264C20.2616 50.0262 20.9439 48.9181 21.959 48.182L29.614 42.638C56.037 23.504 91.413 22.488 118.882 40.073L125.468 44.289C134.106 49.8229 144.211 52.6254 154.466 52.3309C164.72 52.0364 174.648 48.6586 182.954 42.638L190.594 37.105C191.097 36.7405 191.667 36.4789 192.271 36.3351C192.876 36.1913 193.503 36.1682 194.116 36.267C194.729 36.3658 195.317 36.5847 195.845 36.9111C196.374 37.2375 196.833 37.6649 197.196 38.169L208.238 53.538C208.97 54.5565 209.268 55.8235 209.068 57.0615C208.868 58.2996 208.185 59.4079 207.17 60.144L199.515 65.688C173.092 84.822 137.717 85.838 110.247 68.253L103.661 64.036C95.0229 58.5022 84.9176 55.6999 74.6632 55.9946C64.4087 56.2893 54.4811 59.6673 46.175 65.688V65.688Z" fill="black"/>
<path d="M1005.75 9.94873C1005.75 8.83089 1006 7.79329 1006.52 6.83594C1007.04 5.87858 1007.76 5.12598 1008.67 4.57812C1009.59 4.02474 1010.58 3.74805 1011.64 3.74805C1012.7 3.74805 1013.69 4.02474 1014.6 4.57812C1015.52 5.12598 1016.23 5.87858 1016.75 6.83594C1017.27 7.79329 1017.53 8.83089 1017.53 9.94873C1017.53 11.0389 1017.28 12.0599 1016.78 13.0117C1016.28 13.9635 1015.57 14.73 1014.65 15.311C1013.74 15.8866 1012.74 16.1743 1011.64 16.1743C1010.55 16.1743 1009.55 15.8893 1008.63 15.3193C1007.71 14.7438 1007.01 13.9801 1006.5 13.0283C1006 12.0765 1005.75 11.05 1005.75 9.94873ZM1006.7 9.94873C1006.7 10.9006 1006.92 11.7832 1007.37 12.5967C1007.81 13.4046 1008.41 14.0382 1009.17 14.4976C1009.93 14.9569 1010.76 15.1865 1011.64 15.1865C1012.53 15.1865 1013.36 14.9541 1014.12 14.4893C1014.89 14.0189 1015.48 13.3825 1015.92 12.5801C1016.35 11.7777 1016.57 10.9006 1016.57 9.94873C1016.57 9.00244 1016.35 8.13086 1015.92 7.33398C1015.48 6.53158 1014.89 5.90072 1014.12 5.44141C1013.36 4.97656 1012.53 4.74414 1011.64 4.74414C1010.76 4.74414 1009.93 4.9738 1009.17 5.43311C1008.4 5.88688 1007.8 6.51774 1007.36 7.32568C1006.92 8.13363 1006.7 9.00798 1006.7 9.94873ZM1010.42 10.5713V13.377H1009.25V6.32959H1011.54C1012.39 6.32959 1013.04 6.51221 1013.51 6.87744C1013.98 7.23714 1014.21 7.76286 1014.21 8.45459C1014.21 9.13525 1013.86 9.65544 1013.15 10.0151C1013.83 10.2918 1014.17 10.8563 1014.17 11.7085V12.2148C1014.17 12.6908 1014.22 13.0339 1014.31 13.2441V13.377H1013.11C1013.03 13.1777 1012.99 12.8236 1012.99 12.3145C1012.99 11.7998 1012.99 11.4954 1012.97 11.4014C1012.88 10.8701 1012.52 10.5934 1011.88 10.5713H1010.42ZM1010.42 9.50879H1011.72C1012.11 9.49772 1012.43 9.40088 1012.68 9.21826C1012.92 9.03564 1013.04 8.79492 1013.04 8.49609C1013.04 8.09212 1012.94 7.80713 1012.72 7.64111C1012.5 7.46956 1012.12 7.38379 1011.57 7.38379H1010.42V9.50879Z" fill="black"/>
</svg>
