<?xml version="1.0" encoding="UTF-8"?>
<svg width="64px" height="87px" viewBox="0 0 64 87" version="1.1" xmlns="http://www.w3.org/2000/svg" xmlns:xlink="http://www.w3.org/1999/xlink">
    <!-- Generator: Sketch 59 (86127) - https://sketch.com -->
    <title>Group 4</title>
    <desc>Created with Sketch.</desc>
    <g id="Page-1" stroke="none" stroke-width="1" fill="none" fill-rule="evenodd">
        <g id="Desktop-HD-Copy-4" transform="translate(-688.000000, -1782.000000)" fill-rule="nonzero">
            <g id="Group-40" transform="translate(525.000000, 1729.000000)">
                <g id="Group-35">
                    <g id="Group-4" transform="translate(164.000000, 53.000000)">
                        <g id="audit" transform="translate(0.000000, 3.000000)" fill="#000000" stroke="#FFFFFF" stroke-width="2">
                            <path d="M52.1819178,6.41252446 L40.0901762,6.41252446 C38.7663405,2.68023483 35.2006263,0 31.0205871,0 C26.8405479,0 23.2748337,2.68023483 21.950998,6.41252446 L9.69894325,6.41252446 C4.39483358,6.41252446 0.0801565558,10.7272015 0.0801565558,16.0313112 L0.0801565558,72.4615264 C0.0801565558,77.7656361 4.39483358,82.0803131 9.69894325,82.0803131 L52.1919374,82.0803131 C57.4904109,82.0746771 61.8007045,77.76 61.8007045,72.4615264 L61.8007045,16.0313112 C61.8007045,10.7272015 57.4860275,6.41252446 52.1819178,6.41252446 Z M55.38818,72.4615264 C55.38818,74.2274755 53.950998,75.6659099 52.1888063,75.6677886 L9.69894325,75.6677886 C7.93111542,75.6677886 6.49268102,74.2293542 6.49268102,72.4615264 L6.49268102,16.0313112 C6.49268102,14.2634833 7.93111542,12.8250489 9.69894325,12.8250489 L14.9892759,12.8250489 L14.9892759,25.4897847 L47.0518982,25.4897847 L47.0518982,12.8250489 L52.1819178,12.8250489 C53.9497456,12.8250489 55.38818,14.2634833 55.38818,16.0313112 L55.38818,72.4615264 Z" id="Shape"></path>
                        </g>
                        <path d="M21.9617221,6.41252446 C23.5856167,2.13750815 26.6927327,6.92779167e-14 31.2830702,6.92779167e-14 C35.8734077,6.92779167e-14 38.8126843,2.13750815 40.1009002,6.41252446 L47.0626223,6.41252446 L47.0626223,25.4897847 L15,25.4897847 L15,6.41252446 L21.9617221,6.41252446 Z" id="Path" fill="#3498DA"></path>
                        <polygon id="Path" fill="#2FCC71" points="43.2375733 39.8782778 47.9799608 44.1942075 27.4454795 66.758278 13.8821135 53.6389041 18.3408219 49.0299022 27.1524071 57.5527984"></polygon>
                    </g>
                </g>
            </g>
        </g>
    </g>
</svg>
