<?xml version="1.0" encoding="UTF-8"?>
<svg width="100px" height="86px" viewBox="0 0 100 86" version="1.1" xmlns="http://www.w3.org/2000/svg" xmlns:xlink="http://www.w3.org/1999/xlink">
    <!-- Generator: Sketch 59 (86127) - https://sketch.com -->
    <title>illustration</title>
    <desc>Created with Sketch.</desc>
    <g id="Page-1" stroke="none" stroke-width="1" fill="none" fill-rule="evenodd">
        <g id="Desktop-HD-Copy-4" transform="translate(-257.000000, -2658.000000)" fill-rule="nonzero">
            <g id="Group-39" transform="translate(107.000000, 2613.000000)">
                <g id="illustration" transform="translate(150.000000, 45.000000)">
                    <path d="M99.837,11.1272 C99.837,11.1272 95.14,17.4218 89.3462,17.4218 C83.5522,17.4218 78.8554,11.1272 78.8554,11.1272 C78.8554,11.1272 83.5524,4.8326 89.3462,4.8326 C95.14,4.8326 99.837,11.1272 99.837,11.1272 Z" id="Path" fill="#FFFFFF"></path>
                    <circle id="Oval" fill="#FFFFFF" cx="5.419" cy="75.1214" r="5.2454"></circle>
                    <rect id="Rectangle" fill="#3498DA" x="38.4654" y="31.0596" width="52.4544" height="52.4544"></rect>
                    <rect id="SVGCleanerId_0" fill="#FFFFFF" x="38.4654" y="31.0596" width="26.2272" height="26.2272"></rect>
                    <rect id="SVGCleanerId_0_1_" fill="#FFFFFF" x="38.4654" y="31.0596" width="26.2272" height="26.2272"></rect>
                    <g id="Group" transform="translate(9.000000, 1.600000)" fill="#2FCC71">
                        <rect id="Rectangle" x="0.0908" y="0.0852" width="6.2946" height="6.2946"></rect>
                        <rect id="Rectangle" x="52.5452" y="0.0852" width="6.2946" height="6.2946"></rect>
                        <rect id="Rectangle" x="0.0908" y="52.5396" width="6.2946" height="6.2946"></rect>
                        <rect id="Rectangle" x="52.5452" y="52.5396" width="6.2946" height="6.2946"></rect>
                    </g>
                    <path d="M36.8918,53.0908 L40.039,53.0908 L40.039,32.6336 L63.119,32.6336 L63.119,52.5662 L59.9718,52.5662 L59.9718,55.7134 L16.959,55.7134 L16.959,52.5662 L7.5172,52.5662 L7.5172,62.008 L16.959,62.008 L16.959,58.8608 L36.8916,58.8608 L36.8916,83.488 C36.8916,84.3716556 37.6079444,85.088 38.4916,85.088 L90.8932,85.088 C91.7768556,85.088 92.4932,84.3716556 92.4932,83.488 L92.4932,31.0864 C92.4932,30.2027444 91.7768556,29.4864 90.8932,29.4864 L38.4918,29.4864 C37.6081444,29.4864 36.8918,30.2027444 36.8918,31.0864 L36.8918,53.0908 L36.8918,53.0908 Z M13.8118,58.8608 L10.6646,58.8608 L10.6646,55.7136 L13.8118,55.7136 L13.8118,58.8608 Z M63.119,55.7136 L66.2662,55.7136 L66.2662,58.8608 L63.119,58.8608 L63.119,55.7136 Z M89.3462,81.9408 L40.039,81.9408 L40.039,58.8608 L59.9716,58.8608 L59.9716,62.008 L69.4134,62.008 L69.4134,52.5662 L66.2662,52.5662 L66.2662,32.6336 L89.3462,32.6336 L89.3462,81.9408 L89.3462,81.9408 Z" id="Shape" fill="#000000"></path>
                    <path d="M63.119,26.8634 L66.2662,26.8634 L66.2662,9.5534 L69.4134,9.5534 L69.4134,0.1118 L59.9716,0.1118 L59.9716,9.5536 L63.1188,9.5536 L63.1188,26.8634 L63.119,26.8634 Z M63.119,3.259 L66.2662,3.259 L66.2662,6.4062 L63.119,6.4062 L63.119,3.259 Z" id="Shape" fill="#000000"></path>
                    <path d="M16.959,0.1118 L7.5172,0.1118 L7.5172,9.5536 L16.959,9.5536 L16.959,0.1118 Z M13.8118,6.4062 L10.6646,6.4062 L10.6646,3.259 L13.8118,3.259 L13.8118,6.4062 Z" id="Shape" fill="#000000"></path>
                    <rect id="Rectangle" fill="#000000" x="10.6646" y="13.7496" width="3.1472" height="3.1472"></rect>
                    <rect id="Rectangle" fill="#000000" x="10.6646" y="20.0442" width="3.1472" height="3.1472"></rect>
                    <rect id="Rectangle" fill="#000000" x="10.6646" y="26.3388" width="3.1472" height="3.1472"></rect>
                    <rect id="Rectangle" fill="#000000" x="10.6646" y="32.6332" width="3.1472" height="3.1472"></rect>
                    <rect id="Rectangle" fill="#000000" x="10.6646" y="38.9278" width="3.1472" height="3.1472"></rect>
                    <rect id="Rectangle" fill="#000000" x="10.6646" y="45.2224" width="3.1472" height="3.1472"></rect>
                    <rect id="Rectangle" fill="#000000" x="52.628" y="3.2588" width="3.1472" height="3.1472"></rect>
                    <rect id="Rectangle" fill="#000000" x="46.3334" y="3.2588" width="3.1472" height="3.1472"></rect>
                    <rect id="Rectangle" fill="#000000" x="40.039" y="3.2588" width="3.1472" height="3.1472"></rect>
                    <rect id="Rectangle" fill="#000000" x="33.7444" y="3.2588" width="3.1472" height="3.1472"></rect>
                    <rect id="Rectangle" fill="#000000" x="27.45" y="3.2588" width="3.1472" height="3.1472"></rect>
                    <rect id="Rectangle" fill="#000000" x="21.1554" y="3.2588" width="3.1472" height="3.1472"></rect>
                </g>
            </g>
        </g>
    </g>
</svg>
