<?xml version="1.0" encoding="UTF-8"?>
<svg width="98px" height="76px" viewBox="0 0 98 76" version="1.1" xmlns="http://www.w3.org/2000/svg" xmlns:xlink="http://www.w3.org/1999/xlink">
    <!-- Generator: Sketch 59 (86127) - https://sketch.com -->
    <title>Group 5</title>
    <desc>Created with Sketch.</desc>
    <g id="Page-1" stroke="none" stroke-width="1" fill="none" fill-rule="evenodd">
        <g id="Desktop-HD-Copy-4" transform="translate(-879.000000, -2236.000000)">
            <g id="Group-34" transform="translate(733.000000, 2171.000000)">
                <g id="Group-32">
                    <g id="Group-5" transform="translate(146.000000, 68.000000)">
                        <g id="Group-6">
                            <path d="M95.92055,61.1502396 C98.6491425,63.8175812 98.6989421,68.1919575 96.0316005,70.92055 C93.3642588,73.6491425 88.9898825,73.6989421 86.26129,71.0316005 C86.2237406,70.9951162 86.1869901,70.9580994 86.1502396,70.92055 L69,53.7703104 L78.7703104,44 L95.92055,61.1502396 Z" id="Path-Copy" fill="#3498DA" fill-rule="nonzero"></path>
                            <rect id="Rectangle-Copy" fill="#000000" x="25" y="2" width="26" height="6"></rect>
                            <rect id="Rectangle-Copy-4" fill="#2FCC71" x="58" y="2" width="25" height="6"></rect>
                            <polygon id="Rectangle-Copy-11" fill="#000000" points="58 2 83 2 83 8 72 8"></polygon>
                            <rect id="Rectangle-Copy-2" fill="#2FCC71" x="11" y="16" width="19" height="6"></rect>
                            <polygon id="Rectangle-Copy-12" fill="#000000" points="5 16 30 16 24.7368421 22 5 22"></polygon>
                            <rect id="Rectangle-Copy-3" fill="#2FCC71" x="0" y="30" width="52" height="6"></rect>
                            <rect id="Rectangle-Copy-7" fill="#2FCC71" x="17" y="44" width="28" height="6"></rect>
                            <polygon id="Rectangle-Copy-14" fill="#2FCC71" points="17 44 31 44 33.6562043 50 17 50"></polygon>
                            <rect id="Rectangle-Copy-9" fill="#000000" x="53" y="44" width="28" height="6"></rect>
                            <rect id="Rectangle-Copy-10" fill="#2FCC71" x="60" y="30" width="28" height="6"></rect>
                            <rect id="Rectangle-Copy-15" fill="#2FCC71" x="60" y="30" width="28" height="6"></rect>
                            <rect id="Rectangle-Copy-6" fill="#2FCC71" x="72" y="16" width="24" height="6"></rect>
                            <rect id="Rectangle-Copy-8" fill="#000000" x="83" y="16" width="13" height="6"></rect>
                            <circle id="Oval" stroke="#3498DA" stroke-width="6" cx="54" cy="29" r="29"></circle>
                            <rect id="Rectangle-Copy-5" fill="#2FCC71" x="39" y="16" width="24" height="6"></rect>
                        </g>
                    </g>
                </g>
            </g>
        </g>
    </g>
</svg>
