<?xml version="1.0" encoding="UTF-8"?>
<svg width="100px" height="73px" viewBox="0 0 100 73" version="1.1" xmlns="http://www.w3.org/2000/svg" xmlns:xlink="http://www.w3.org/1999/xlink">
    <title>Header-right</title>
    <g id="Page-1" stroke="none" stroke-width="1" fill="none" fill-rule="evenodd">
        <g id="404-w-Dark-footer" transform="translate(-46.000000, -936.000000)" fill-rule="nonzero">
            <g id="Footer" transform="translate(24.000000, 936.000000)">
                <g id="Group-11" transform="translate(22.000000, 0.000000)">
                    <path d="M24.1651257,57.901872 C39.0050604,57.901872 49.2125984,44.4605662 49.2125984,29.3475242 C49.2125984,14.2344821 33.3500426,0 18.5101079,0 C3.67017321,0 0,14.6148324 0,29.7278745 C0,44.8409165 9.325191,57.901872 24.1651257,57.901872 Z" id="Oval" fill="#2ECC71"></path>
                    <path d="M55.5535975,72.7739281 C63.2181792,72.7739281 66.3385827,62.7030114 66.3385827,54.9274607 C66.3385827,47.1519101 60.1252116,40.8485809 52.4606299,40.8485809 C44.7960483,40.8485809 38.4728113,52.3764875 38.4728113,60.1520381 C38.4728113,67.9275887 47.8890159,72.7739281 55.5535975,72.7739281 Z" id="Oval-Copy-5" fill="#F1C40F"></path>
                    <path d="M82.8385325,49.9429201 C89.8508094,49.9429201 99.8031496,41.6077935 99.8031496,34.4893316 C99.8031496,27.3708698 90.1815682,22.4072313 83.1692913,22.4072313 C76.1570145,22.4072313 70.4724409,28.1778848 70.4724409,35.2963466 C70.4724409,42.4148085 75.8262557,49.9429201 82.8385325,49.9429201 Z" id="Oval-Copy-6" fill="#3498DB"></path>
                </g>
            </g>
        </g>
    </g>
</svg>