<?xml version="1.0" encoding="UTF-8"?>
<svg width="24px" height="24px" viewBox="0 0 24 24" version="1.1" xmlns="http://www.w3.org/2000/svg" xmlns:xlink="http://www.w3.org/1999/xlink">
    <title>logo-youtube</title>
    <g id="logo-youtube" stroke="none" stroke-width="1" fill="none" fill-rule="evenodd">
        <g id="youtube-alt" transform="translate(2.000000, 4.000000)" fill="#999999" fill-rule="nonzero">
            <path d="M12.89,6.48 L9.89,4.74 C9.34716519,4.41928399 8.67283481,4.41928399 8.13,4.74 C7.58285512,5.04843803 7.24883948,5.63200559 7.26,6.26 L7.26,9.74 C7.24883948,10.3679944 7.58285512,10.951562 8.13,11.26 C8.67283481,11.580716 9.34716519,11.580716 9.89,11.26 L12.89,9.52 C13.4115176,9.19990918 13.7293481,8.63191402 13.7293481,8.02 C13.7293481,7.40808598 13.4115176,6.84009082 12.89,6.52 L12.89,6.48 Z M9.24,9.32 L9.24,6.68 L11.52,8 L9.24,9.32 Z M17,-8.8817842e-16 L3,-8.8817842e-16 C1.34314575,-8.8817842e-16 -4.4408921e-16,1.34314575 -4.4408921e-16,3 L-4.4408921e-16,13 C-4.4408921e-16,14.6568542 1.34314575,16 3,16 L17,16 C18.6568542,16 20,14.6568542 20,13 L20,3 C20,1.34314575 18.6568542,-8.8817842e-16 17,-8.8817842e-16 Z M18,13 C18,13.5522847 17.5522847,14 17,14 L3,14 C2.44771525,14 2,13.5522847 2,13 L2,3 C2,2.44771525 2.44771525,2 3,2 L17,2 C17.5522847,2 18,2.44771525 18,3 L18,13 Z" id="Shape"></path>
        </g>
    </g>
</svg>