<?xml version="1.0" encoding="UTF-8"?>
<svg width="24px" height="24px" viewBox="0 0 24 24" version="1.1" xmlns="http://www.w3.org/2000/svg" xmlns:xlink="http://www.w3.org/1999/xlink">
    <title>logo-pinterest</title>
    <g id="logo-pinterest" stroke="none" stroke-width="1" fill="none" fill-rule="evenodd">
        <g id="pinterest" transform="translate(1.000000, 0.000000)" fill="#999999" fill-rule="nonzero">
            <path d="M11.361949,5 C7.13238706,5 5,7.93481821 5,10.3815919 C5,11.8637406 5.57977344,13.1812971 6.82202812,13.673436 C6.87443701,13.6939076 6.92602702,13.7045529 6.97434148,13.7045529 C7.11355261,13.7045529 7.22574041,13.6193908 7.26832264,13.4572552 C7.31008598,13.3065837 7.40671489,12.9258107 7.4509349,12.7653128 C7.50989491,12.549132 7.48778491,12.4746151 7.32318821,12.2862758 C6.96451481,11.8768425 6.73440699,11.3470357 6.73440699,10.5977727 C6.73440699,8.41958729 8.41968063,6.47150344 11.1187389,6.47150344 C13.509076,6.47150344 14.822574,7.88486734 14.822574,9.77235506 C14.822574,12.2559777 13.6867749,14.3530953 12.0006824,14.3530953 C11.0679678,14.3530953 10.3719121,13.6071078 10.5954688,12.6932525 C10.8632455,11.6017032 11.3824212,10.4241729 11.3824212,9.63724206 C11.3824212,8.93137897 10.9901733,8.34425156 10.181111,8.34425156 C9.22792412,8.34425156 8.46308175,9.29659351 8.46308175,10.5740255 C8.46308175,11.3863413 8.74723625,11.9374386 8.74723625,11.9374386 C8.74723625,11.9374386 7.77439607,15.9318703 7.60324826,16.6320013 C7.26259042,18.0248935 7.55165825,19.7330495 7.57622492,19.9050115 C7.58441381,19.9664265 7.63682271,20 7.69086939,20 C7.7269005,20 7.76375051,19.9852604 7.78749829,19.9541435 C7.87593831,19.8444153 9.00928074,18.489191 9.39497748,17.1347855 C9.5055275,16.7515558 10.0214276,14.7674419 10.0214276,14.7674419 C10.3309677,15.3381919 11.2350212,15.8401572 12.1972158,15.8401572 C15.0584141,15.8401572 17,13.317229 17,9.93776613 C16.9991811,7.38044546 14.7627951,5 11.361949,5 Z" id="Path"></path>
        </g>
        <path d="M21.94,7.88 C21.9205523,7.05029823 21.7651564,6.229403 21.48,5.45 C21.2257319,4.7831326 20.8299857,4.17927847 20.32,3.68 C19.8248224,3.1674259 19.2195602,2.77417649 18.55,2.53 C17.7726568,2.2361608 16.9508476,2.07721005 16.12,2.06 C15.06,2 14.72,2 12,2 C9.28,2 8.94,2 7.88,2.06 C7.0491524,2.07721005 6.22734319,2.2361608 5.45,2.53 C4.78167657,2.77664857 4.17693385,3.16956051 3.68,3.68 C3.1674259,4.17517762 2.77417649,4.78043975 2.53,5.45 C2.2361608,6.22734319 2.07721005,7.0491524 2.06,7.88 C2,8.94 2,9.28 2,12 C2,14.72 2,15.06 2.06,16.12 C2.07721005,16.9508476 2.2361608,17.7726568 2.53,18.55 C2.77417649,19.2195602 3.1674259,19.8248224 3.68,20.32 C4.17693385,20.8304395 4.78167657,21.2233514 5.45,21.47 C6.22734319,21.7638392 7.0491524,21.9227899 7.88,21.94 C8.94,22 9.28,22 12,22 C14.72,22 15.06,22 16.12,21.94 C16.9508476,21.9227899 17.7726568,21.7638392 18.55,21.47 C19.2195602,21.2258235 19.8248224,20.8325741 20.32,20.32 C20.8322421,19.8225804 21.2283368,19.2181945 21.48,18.55 C21.7651564,17.770597 21.9205523,16.9497018 21.94,16.12 C21.94,15.06 22,14.72 22,12 C22,9.28 22,8.94 21.94,7.88 Z" id="Path"></path>
        <path d="M20.14,16 C20.1327193,16.6347712 20.0177534,17.2637024 19.8,17.86 C19.6403339,18.2951936 19.3838794,18.6884238 19.05,19.01 C18.7256473,19.3405064 18.3332263,19.5964331 17.9,19.76 C17.3037024,19.9777534 16.6747712,20.0927193 16.04,20.1 C15.04,20.15 14.67,20.16 12.04,20.16 C9.41,20.16 9.04,20.16 8.04,20.1 C7.38089075,20.112341 6.72459487,20.010852 6.1,19.8 C5.68578174,19.6280775 5.31135593,19.3727872 5,19.05 C4.66808857,18.7287484 4.41484306,18.3351912 4.26,17.9 C4.01585619,17.2951524 3.88044356,16.6519424 3.86,16 C3.86,15 3.8,14.63 3.8,12 C3.8,9.37 3.8,9 3.86,8 C3.86448241,7.35105548 3.98295008,6.70794524 4.21,6.1 C4.38604705,5.67791115 4.65626495,5.30165837 5,5 C5.30381341,4.65616823 5.67928781,4.38309594 6.1,4.2 C6.70955109,3.98004373 7.35199731,3.86507967 8,3.86 C9,3.86 9.37,3.8 12,3.8 C14.63,3.8 15,3.8 16,3.86 C16.6347712,3.86728068 17.2637024,3.9822466 17.86,4.2 C18.3144297,4.36865248 18.7222936,4.6428467 19.05,5 C19.377702,5.30717838 19.6337617,5.68273272 19.8,6.1 C20.022253,6.70893369 20.1372887,7.3517799 20.14,8 C20.19,9 20.2,9.37 20.2,12 C20.2,14.63 20.19,15 20.14,16 Z" id="Path"></path>
        <rect id="Rectangle" stroke="#979797" stroke-width="2" x="3" y="3" width="18" height="18" rx="5"></rect>
    </g>
</svg>