<?xml version="1.0" encoding="UTF-8"?>
<svg width="24px" height="24px" viewBox="0 0 24 24" version="1.1" xmlns="http://www.w3.org/2000/svg" xmlns:xlink="http://www.w3.org/1999/xlink">
    <title>logo-linkedin</title>
    <g id="logo-linkedin" stroke="none" stroke-width="1" fill="none" fill-rule="evenodd">
        <g id="linkedin-alt" transform="translate(1.000000, 1.000000)" fill="#999999" fill-rule="nonzero">
            <path d="M16.4999998,7.99899951 C15.6047432,7.99861852 14.7233396,8.2200594 13.93457,8.64353 C13.7872073,8.25538736 13.4151752,7.9988139 12.9999998,7.99899951 L8.99999983,7.99899951 C8.73473715,7.99884867 8.4802953,8.10415691 8.29272611,8.29172611 C8.10515691,8.4792953 7.99984867,8.73373715 7.99999983,8.99899951 L7.99999983,20.9989995 C7.99984601,21.2642637 8.1051534,21.5187071 8.29272317,21.7062768 C8.48029294,21.8938466 8.73473633,21.999154 8.99999983,21.9989995 L12.9999998,21.9989995 C13.2652637,21.999154 13.5197071,21.8938466 13.7072768,21.7062768 C13.8948466,21.5187071 14.000154,21.2642637 13.9999998,20.9989995 L13.9999998,15.4989995 C13.9999998,15.1417344 14.1905989,14.8116074 14.4999998,14.6329746 C14.8094011,14.4543418 15.1905989,14.4543418 15.4999998,14.6329746 C15.8094011,14.8116074 15.9999998,15.1417344 15.9999998,15.4989995 L15.9999998,20.9989995 C15.999846,21.2642637 16.1051534,21.5187071 16.2927232,21.7062768 C16.4802929,21.8938466 16.7347363,21.999154 16.9999998,21.9989995 L20.9999998,21.9989995 C21.2652637,21.999154 21.5197071,21.8938466 21.7072768,21.7062768 C21.8948466,21.5187071 22.000154,21.2642637 21.9999998,20.9989995 L21.9999998,13.4989995 C21.9962258,10.4629986 19.5360014,8.00277416 16.4999998,7.99899951 Z M20.0000441,19.999 L18,19.999 L18,15.499 C18,13.8421458 16.6568542,12.499 15,12.499 C13.3431458,12.499 12,13.8421458 12,15.499 L12,19.999 L10,19.999 L10,9.999 L12,9.999 L12,10.70213 C12.0002488,11.1267755 12.2685377,11.5050017 12.6692332,11.6455966 C13.0699287,11.7861916 13.515725,11.6585215 13.78125,11.32713 C14.7012539,10.1586786 16.2617137,9.70336394 17.6657251,10.1937085 C19.0697365,10.6840531 20.0074545,12.0118449 20.0000441,13.499 L20.0000441,19.999 Z M5.99999983,7.99899984 L1.99999983,7.99899984 C1.73473715,7.99884867 1.4802953,8.10415691 1.29272611,8.29172611 C1.10515691,8.4792953 0.999848671,8.73373715 0.999999831,8.99899984 L0.999999831,20.9989998 C0.999846013,21.2642637 1.1051534,21.5187071 1.29272317,21.7062768 C1.48029294,21.8938466 1.73473633,21.999154 1.99999983,21.9989998 L5.99999983,21.9989998 C6.26526367,21.999154 6.51970706,21.8938466 6.70727683,21.7062768 C6.8948466,21.5187071 7.00015399,21.2642637 6.99999983,20.9989998 L6.99999983,8.99899984 C7.00015133,8.73373715 6.89484309,8.4792953 6.70727389,8.29172611 C6.5197047,8.10415691 6.26526285,7.99884867 5.99999983,7.99899984 Z M5,19.999 L3,19.999 L3,9.999 L5,9.999 L5,19.999 Z M4.01465,0.542 C2.82243411,0.470635286 1.68799943,1.06241139 1.06436271,2.08101284 C0.440725995,3.09961428 0.42950076,4.37907315 1.03516961,5.40845981 C1.64083846,6.43784647 2.7647155,7.04943571 3.958,6.999 L3.98632,6.999 C5.18181631,7.0700093 6.31864748,6.47442236 6.94083609,5.45112617 C7.56302469,4.42782998 7.56865354,3.14444491 6.95546492,2.11573043 C6.34227631,1.08701595 5.21071319,0.481479971 4.01464,0.542 L4.01465,0.542 Z M3.98633,4.999 L3.958,4.999 C3.60813355,5.04148457 3.25696148,4.93083674 2.99464274,4.69546396 C2.732324,4.46009117 2.5844079,4.12291823 2.58887,3.77051 C2.58887,3.02441 3.14844,2.54199 4.01465,2.54199 C4.36810561,2.49487145 4.72465778,2.60301577 4.99238538,2.83854275 C5.26011298,3.07406972 5.41281719,3.41393157 5.41114383,3.77051 C5.41114383,4.5166 4.85156,4.999 3.98633,4.999 Z" id="Shape"></path>
        </g>
    </g>
</svg>