<?xml version="1.0" encoding="UTF-8"?>
<svg width="24px" height="24px" viewBox="0 0 24 24" version="1.1" xmlns="http://www.w3.org/2000/svg" xmlns:xlink="http://www.w3.org/1999/xlink">
    <title>icon-campaign-creator copy</title>
    <g id="icon-campaign-creator-copy" stroke="none" stroke-width="1" fill="none" fill-rule="evenodd">
        <g id="twitter-alt" transform="translate(0.000000, 2.000000)" fill="#999999" fill-rule="nonzero">
            <path d="M22.99121,1.9502 C22.9914492,1.59061754 22.798502,1.25862567 22.4859499,1.08083135 C22.1733979,0.903037041 21.7894282,0.906851475 21.48047,1.09082 C20.8951576,1.43920535 20.2649992,1.70600493 19.60747,1.88382 C18.6684463,1.07805226 17.4708086,0.637123532 16.23347,0.641595796 C13.411796,0.644878237 11.1009212,2.88490449 11.00984,5.70511 C8.33382026,5.27837125 5.90847201,3.88163577 4.19629,1.78125 C3.98693419,1.52724668 3.6670806,1.39099312 3.33887,1.416 C3.01072049,1.44302036 2.71698545,1.63007462 2.55371,1.916 C1.71712593,3.37593442 1.62715654,5.14736814 2.31152,6.68455 L2.30957,6.6865 C2.00118566,6.87643797 1.81367501,7.21299671 1.81445,7.57518 C1.81261405,7.72210799 1.82142713,7.86897589 1.84082,8.01463 C1.94295721,9.27289614 2.50060246,10.4506869 3.40918,11.32713 C3.28467017,11.5643338 3.2607395,11.8416319 3.34277,12.09666 C3.73888448,13.330804 4.58126859,14.3727235 5.70508,15.01853 C4.56332052,15.4600422 3.33049953,15.6139796 2.11523,15.46678 C1.65197683,15.4086513 1.21017349,15.6788984 1.05094534,16.1177935 C0.891717189,16.5566885 1.0574673,17.047352 1.45023,17.29978 C3.54032473,18.6459468 5.97390651,19.3616551 8.46,19.36133 C14.2570301,19.4265346 19.3726705,15.583759 20.9248,9.998 C21.2778718,8.81463619 21.4581336,7.58647137 21.46,6.35156 C21.46,6.28613 21.46,6.21875 21.459,6.15137 C22.5137351,5.01389708 23.0660059,3.4996245 22.99121,1.9502 L22.99121,1.9502 Z M19.68457,5.16211 C19.5194021,5.35745451 19.4358167,5.60890886 19.45117,5.86426 C19.46094,6.02926 19.45996,6.19526 19.45996,6.35156 C19.4579114,7.39510055 19.3049618,8.43286043 19.00586,9.43262 C17.7370848,14.1895372 13.3821509,17.4637139 8.46,17.36133 C7.6008782,17.3615939 6.74471693,17.260638 5.90922,17.06055 C6.97463099,16.7172003 7.97080961,16.1878651 8.8516,15.49707 C9.1840177,15.235337 9.31582471,14.7927763 9.18077501,14.3918183 C9.04572532,13.9908604 8.67302793,13.7182257 8.25,13.71094 C7.4188306,13.6980161 6.62512986,13.3629608 6.03613,12.77637 C6.18555,12.74805 6.33399,12.7128933 6.48145,12.6709 C6.9260797,12.5443395 7.22605621,12.1295706 7.20702274,11.6676714 C7.18798926,11.2057722 6.85490495,10.8170898 6.40137,10.72754 C5.42343834,10.5344109 4.59147404,9.89635348 4.15137,9.00195 C4.332099,9.02661804 4.5139811,9.04193843 4.69629,9.04785 C5.14070958,9.05456384 5.53840601,8.77297746 5.67969,8.35156 C5.81525596,7.92575288 5.65179795,7.46169038 5.2793,7.21484 C4.38584888,6.61962436 3.8509771,5.61555315 3.85544192,4.542 C3.85544192,4.4756 3.85742,4.40919 3.86133,4.34376 C6.10259148,6.43401444 9.00965119,7.66620901 12.07033,7.82325 C12.3833626,7.8355837 12.6847142,7.70345043 12.88772,7.46485 C13.0887883,7.22380913 13.1650607,6.90236903 13.09372,6.59669 C13.0365304,6.35805382 13.0073634,6.1135627 13.00681,5.86817 C13.0087005,4.08696045 14.4521904,2.64347947 16.2334,2.64158856 C17.1232309,2.63921658 17.9734665,3.00927095 18.57812,3.66211 C18.8126363,3.91440587 19.1611498,4.02714443 19.499,3.96 C19.9097839,3.8800568 20.3146833,3.77239055 20.71092,3.63774 C20.44065,4.19071216 20.0952671,4.70368662 19.68457,5.16211 Z" id="Shape"></path>
        </g>
    </g>
</svg>