<?xml version="1.0" encoding="UTF-8"?>
<svg width="83px" height="75px" viewBox="0 0 83 75" version="1.1" xmlns="http://www.w3.org/2000/svg" xmlns:xlink="http://www.w3.org/1999/xlink">
    <!-- Generator: Sketch 59 (86127) - https://sketch.com -->
    <title>Group 11</title>
    <desc>Created with Sketch.</desc>
    <g id="Page-1" stroke="none" stroke-width="1" fill="none" fill-rule="evenodd">
        <g id="Desktop-HD-Copy-4" transform="translate(-1091.000000, -1797.000000)">
            <g id="Group-36" transform="translate(940.000000, 1729.000000)">
                <g id="Group-17" transform="translate(4.000000, 68.000000)">
                    <g id="Group-11" transform="translate(148.000000, 0.000000)">
                        <g id="savings" transform="translate(0.000000, 5.000000)" fill="#000000" fill-rule="nonzero" stroke="#FFFFFF">
                            <path d="M78.55715,24.56945 L72.5949,24.56945 C70.30625,19.26975 66.4132,14.8685 61.4166,11.93725 L61.3928,2.78895 C61.39035,1.86215 60.8993,1.00535 60.1013,0.5346 C59.3026,0.0635 58.31525,0.0488 57.5036,0.4954 C52.9045612,4.29021886 49.4139685,6.31022113 47.0318219,6.5554068 C41,7.17624026 36.0687812,7.17624026 31.6333793,7.17624026 C30.0559506,7.17624026 19.094998,9.21295586 17.02925,10.15575 C6.88345,14.24305 0,24.2443 0,35.34875 C0,44.15615 4.20315,52.294 11.3155,57.3991 L11.3155,65.93175 C11.3155,67.38145 12.4908,68.5571 13.9405,68.5571 L27.146,68.5571 C28.595,68.5571 29.76995,67.3825 29.771,65.9335 L29.77345,62.4986 L45.038,62.4986 L45.0254,65.9223 C45.02295,66.6202 45.29805,67.29045 45.7905,67.78465 C46.2833,68.2792 46.95215,68.5571 47.6504,68.5571 L60.0733,68.5571 C61.523,68.5571 62.6983,67.3818 62.6983,65.9321 L62.6983,57.96015 C68.17195,54.31805 72.1301,48.83565 73.85385,42.53425 L78.55715,42.53425 C80.00685,42.53425 81.18215,41.35895 81.18215,39.90925 L81.18215,27.1948 C81.18215,25.7444 80.00685,24.56945 78.55715,24.56945 Z M71.76715,37.2839 C70.50435,37.2839 69.4204,38.18305 69.1873,39.42415 C68.02215,45.6265 64.21555,51.02805 58.74365,54.2442 C57.94145,54.71565 57.44865,55.57665 57.44865,56.5073 L57.44865,63.3071 L50.28555,63.3071 L50.2985,59.8834 C50.30095,59.1855 50.02585,58.51525 49.53305,58.02105 C49.04025,57.5265 48.3714,57.24895 47.6735,57.24895 L27.1502,57.24895 C25.7012,57.24895 24.52625,58.4232 24.5252,59.8722 L24.52275,63.3071 L16.5655,63.3071 L16.5655,56.00925 C16.5655,55.11465 16.1098,54.28165 15.35695,53.79935 C9.02825,49.7432 5.25,42.8461 5.25,35.34875 C5.25,26.38735 10.80555,18.3174 18.9931,15.0225 C19.5583218,15.0225 25.761838,13.0495437 32.6854891,12.3021222 C40.8984265,11.4155199 49.53305,11.4155199 50.18755,10.5068 L56.15435,7.2273 L56.1708,13.49965 C56.17325,14.48385 56.72625,15.38405 57.603,15.83135 C62.64475,18.40315 66.45415,22.7484 68.32945,28.06665 C68.69975,29.11665 69.692,29.81875 70.805,29.81875 L75.93215,29.81875 L75.93215,37.2839 L71.76715,37.2839 Z" id="Shape"></path>
                        </g>
                        <circle id="Oval" fill="#3498DA" cx="34" cy="11" r="11"></circle>
                        <rect id="Rectangle" fill="#2FCC71" x="21" y="23" width="27" height="5" rx="2.5"></rect>
                        <circle id="Oval" fill="#000000" cx="54.5" cy="32.5" r="2.5"></circle>
                    </g>
                </g>
            </g>
        </g>
    </g>
</svg>
