<?xml version="1.0" encoding="UTF-8"?>
<svg width="54px" height="51px" viewBox="0 0 54 51" version="1.1" xmlns="http://www.w3.org/2000/svg" xmlns:xlink="http://www.w3.org/1999/xlink">
    <!-- Generator: Sketch 59 (86127) - https://sketch.com -->
    <title>Group 8</title>
    <desc>Created with Sketch.</desc>
    <g id="Page-1" stroke="none" stroke-width="1" fill="none" fill-rule="evenodd">
        <g id="Desktop-HD-Copy-6" transform="translate(-277.000000, -1288.000000)">
            <g id="Group-15" transform="translate(167.000000, 1283.000000)">
                <g id="Group-8" transform="translate(106.000000, 0.000000)">
                    <g id="icon/stores">
                        <g id="menu2">
                            <rect id="Rectangle" x="0" y="0" width="60" height="60"></rect>
                            <path d="M54.9327628,11.974711 C54.3185906,8.27789298 51.0751906,5.56849364 47.2794877,5.58144156 L14.1403063,5.58144156 C10.3446034,5.56849364 7.10120345,8.27789298 6.48703118,11.974711 L4.18604651,25.551053 C4.19191516,27.9388187 5.33040934,30.1860874 7.26236298,31.6233805 L7.26236298,48.1618335 C7.2760913,52.3823577 10.739341,55.8004043 15.0156809,55.8139535 L46.3791024,55.8139535 C50.6554423,55.8004043 54.118692,52.3823577 54.1324203,48.1618335 L54.1324203,31.6233805 C56.0998436,30.1163055 57.2383982,27.7866961 57.2087368,25.3288946 L54.9327628,11.974711 Z M35.4744359,52.901211 L25.9453581,52.901211 L25.9453581,43.4471401 L35.4744359,43.4471401 L35.4744359,52.901211 Z M51.131136,48.211202 C51.1174606,50.7958112 48.9978926,52.8877141 46.3791024,52.901211 L38.4757203,52.901211 L38.4757203,41.9660847 C38.4757203,41.1481203 37.8038599,40.4850292 36.9750781,40.4850292 L24.4697266,40.4850292 C23.6409448,40.4850292 22.9690844,41.1481203 22.9690844,41.9660847 L22.9690844,52.901211 L15.0406916,52.901211 C12.4121754,52.8876286 10.288658,50.7807615 10.288658,48.1865177 L10.288658,33.0056989 C13.2811355,33.6727709 16.3887325,32.5177795 18.1920402,30.0682722 C19.6525424,32.0341964 21.9747312,33.195693 24.4447159,33.195693 C26.9147006,33.195693 29.2368895,32.0341964 30.6973917,30.0682722 C32.1578938,32.0341964 34.4800827,33.195693 36.9500674,33.195693 C39.4200521,33.195693 41.742241,32.0341964 43.2027431,30.0682722 C45.0100846,32.5273186 48.1306744,33.6834802 51.131136,33.0056989 L51.131136,48.1371492 L51.131136,48.211202 Z M52.0815427,29.5252185 L52.0815427,29.5252185 C50.623364,30.4478144 48.7706979,30.5094227 47.2529043,29.6857894 C45.7351107,28.8621561 44.7952885,27.2851993 44.8034281,25.5757372 C44.8034281,24.7577729 44.1315677,24.0946817 43.3027859,24.0946817 C42.4740042,24.0946817 41.8021438,24.7577729 41.8021438,25.5757372 C41.8021438,27.2513161 40.8964114,28.7996149 39.426127,29.6374043 C37.9558427,30.4751938 36.1443777,30.4751938 34.6740934,29.6374043 C33.2038091,28.7996149 32.2980766,27.2513161 32.2980766,25.5757372 C32.2980766,24.7577729 31.6262163,24.0946817 30.7974345,24.0946817 C29.9686527,24.0946817 29.2967923,24.7577729 29.2967923,25.5757372 C29.2967922,28.1659576 27.1692343,30.2658973 24.5447587,30.2658973 C21.9202831,30.2658973 19.7927252,28.1659576 19.7927252,25.5757372 C19.7927252,24.7577729 19.1208648,24.0946817 18.292083,24.0946817 C17.4633012,24.0946817 16.7914408,24.7577729 16.7914408,25.5757372 C16.7914408,28.1659577 14.6638829,30.2658973 12.0394072,30.2658973 C11.1597596,30.2726588 10.2949211,30.0422001 9.53833695,29.5992713 L9.33825132,29.5992713 C7.99395529,28.7699533 7.18021404,27.3131307 7.18728457,25.748527 L9.43829413,12.4190276 C9.80752047,10.1400363 11.8018474,8.46489024 14.1403063,8.46952668 L47.2794877,8.46952668 C49.6098918,8.46293835 51.6012841,10.1251651 51.9814999,12.3943434 L54.2327231,25.4770002 C54.249392,27.0771286 53.4385186,28.5753455 52.0815427,29.4511658 L52.0815427,29.5252185 Z" id="Shape" fill="#FFFFFF" fill-rule="nonzero"></path>
                        </g>
                    </g>
                </g>
            </g>
        </g>
    </g>
</svg>