<?xml version="1.0" encoding="UTF-8"?>
<svg width="81px" height="57px" viewBox="0 0 81 57" version="1.1" xmlns="http://www.w3.org/2000/svg" xmlns:xlink="http://www.w3.org/1999/xlink">
    <!-- Generator: Sketch 59 (86127) - https://sketch.com -->
    <title>Group 12</title>
    <desc>Created with Sketch.</desc>
    <g id="Page-1" stroke="none" stroke-width="1" fill="none" fill-rule="evenodd">
        <g id="Desktop-HD-Copy-6" transform="translate(-1089.000000, -1282.000000)" fill="#FFFFFF" fill-rule="nonzero">
            <g id="Group-13" transform="translate(986.000000, 1282.000000)">
                <g id="Group-12" transform="translate(103.000000, 0.000000)">
                    <g id="money" transform="translate(13.000000, 22.000000)">
                        <path d="M7.00655,11.0144 L7.00655,5.0528 C7.6007,5.27345 8.1191,5.6783 8.47955,6.2258 C8.7986,6.71015 9.44975,6.84425 9.93395,6.52535 C10.4183,6.20645 10.5524,5.5553 10.23335,5.07095 C9.479,3.92555 8.31665,3.14795 7.00655,2.8739 L7.00655,1.2059 C7.00655,0.626 6.53645,0.1559 5.95655,0.1559 C5.37665,0.1559 4.90655,0.626 4.90655,1.2059 L4.90655,2.87075 C2.5826,3.35525 0.83135,5.4191 0.83135,7.88465 C0.83135,10.3502 2.58275,12.41435 4.90655,12.89885 L4.90655,18.86045 C4.3124,18.6398 3.794,18.23495 3.43355,17.68745 C3.1145,17.2031 2.46335,17.06885 1.97915,17.3879 C1.4948,17.7068 1.3607,18.35795 1.67975,18.8423 C2.4341,19.9877 3.59645,20.7653 4.90655,21.03935 L4.90655,22.7072 C4.90655,23.2871 5.37665,23.7572 5.95655,23.7572 C6.53645,23.7572 7.00655,23.2871 7.00655,22.7072 L7.00655,21.0425 C9.3305,20.558 11.08175,18.49415 11.08175,16.0286 C11.08175,13.56305 9.3305,11.4989 7.00655,11.0144 Z M2.93135,7.88465 C2.93135,6.5867 3.75545,5.4806 4.90655,5.05355 L4.90655,10.71575 C3.75545,10.2887 2.93135,9.1826 2.93135,7.88465 L2.93135,7.88465 Z M7.00655,18.85955 L7.00655,13.19735 C8.15765,13.6244 8.98175,14.7305 8.98175,16.02845 C8.98175,17.3264 8.1578,18.4325 7.00655,18.85955 Z" id="Shape"></path>
                    </g>
                    <g id="euro">
                        <path d="M80.24,30.904 C79.952,28.824 77.808,27.16 73.792,25.944 C70.544,24.968 66.432,24.376 61.952,24.28 L61.952,7.208 C61.952,6.856 61.84,6.52 61.616,6.248 C61.088,4.392 58.944,2.888 55.232,1.768 C51.632,0.68 46.928,0.088 41.984,0.088 C37.056,0.088 32.4,0.68 28.88,1.768 C25.984,2.664 22.512,4.328 22.512,7.192 C22.512,7.368 22.528,7.544 22.56,7.72 L22.736,15.016 C12.352,13.016 2.32,19.848 0.336,30.248 C0.112,31.416 0,32.616 0,33.816 C0,44.376 8.592,52.968 19.152,52.968 C23.552,52.968 27.808,51.448 31.232,48.68 C34.24,49.384 37.76,49.768 41.488,49.8 C42.304,54.232 51.904,56.264 60.864,56.264 C65.792,56.264 70.432,55.656 73.984,54.552 C76.896,53.656 80.352,51.976 80.352,49.112 L80.352,31.528 C80.352,31.32 80.32,31.096 80.24,30.904 Z M29.84,4.824 C33.072,3.832 37.392,3.272 42,3.272 C46.576,3.272 51.056,3.832 54.32,4.824 C57.792,5.88 58.544,6.968 58.544,7.192 C58.544,7.416 57.792,8.52 54.304,9.56 C51.056,10.536 46.576,11.112 42,11.112 C37.584,11.112 33.392,10.6 30.208,9.672 C26.768,8.68 25.808,7.576 25.728,7.224 C25.728,7.192 25.728,7.176 25.712,7.176 C25.728,6.952 26.464,5.864 29.84,4.824 Z M58.752,11.192 L58.752,15.288 C58.608,15.512 58.528,15.784 58.544,16.056 C58.544,16.264 57.792,17.368 54.304,18.424 C51.056,19.4 46.56,19.976 41.984,19.976 C38.032,19.976 34.16,19.56 31.088,18.776 C31.04,18.76 31.008,18.76 30.96,18.744 C29.44,17.544 27.76,16.6 25.952,15.912 L25.84,11.4 C26.944,11.96 28.096,12.408 29.296,12.728 C32.768,13.736 37.264,14.28 41.984,14.28 C46.928,14.28 51.632,13.688 55.216,12.6 C56.448,12.264 57.632,11.784 58.752,11.192 Z M29.888,45.608 C23.376,51.544 13.28,51.064 7.36,44.552 C1.44,38.04 1.904,27.944 8.416,22.024 C11.36,19.352 15.184,17.864 19.152,17.864 C20.752,17.864 22.352,18.104 23.888,18.568 C29.424,20.312 33.6,24.904 34.8,30.584 C35.008,31.64 35.12,32.728 35.12,33.8 C35.12,38.312 33.216,42.6 29.888,45.608 Z M33.952,45.96 C35.248,44.376 36.288,42.6 37.024,40.696 C38.384,40.808 39.824,40.888 41.296,40.904 L41.296,41.192 L41.376,46.616 C38.896,46.584 36.416,46.36 33.952,45.96 Z M38.208,31.912 C39.152,31.976 40.128,32.008 41.12,32.024 C41.12,32.056 41.136,32.104 41.136,32.136 L41.232,37.688 C40.096,37.672 38.992,37.624 37.92,37.544 C38.16,36.312 38.288,35.048 38.288,33.8 C38.304,33.176 38.272,32.552 38.208,31.912 Z M42.144,28.84 C42.096,28.84 42.048,28.84 42,28.84 C40.464,28.84 38.976,28.776 37.6,28.68 C36.992,26.536 36.032,24.52 34.736,22.728 C37.136,23.032 39.552,23.192 41.984,23.192 C46.928,23.192 51.632,22.6 55.232,21.512 C56.464,21.128 57.632,20.664 58.752,20.072 L58.752,24.312 C51.872,24.504 44.768,25.944 42.144,28.84 Z M44.288,31.304 C44.448,30.856 45.616,29.816 48.896,28.888 C52.016,28.008 56.08,27.528 60.352,27.528 L60.56,27.528 C65.136,27.528 69.616,28.056 72.88,29.048 C76.256,30.072 77.056,31.096 77.104,31.368 L77.104,31.384 C77.088,31.624 76.288,32.728 72.736,33.784 C69.456,34.76 65.136,35.288 60.56,35.288 C56.24,35.288 52.112,34.792 48.944,33.912 C45.888,33.048 44.656,32.072 44.352,31.576 C44.336,31.48 44.32,31.384 44.288,31.304 Z M77.152,49.112 C77.152,49.336 76.432,50.44 73.04,51.496 C69.792,52.504 65.472,53.064 60.864,53.064 C56.24,53.064 51.92,52.52 48.72,51.544 C45.328,50.504 44.64,49.432 44.64,49.192 C44.64,49.176 44.64,49.176 44.64,49.16 L44.56,44.536 C48.368,46.472 54.72,47.352 60.544,47.352 C65.488,47.352 70.16,46.76 73.744,45.672 C74.928,45.32 76.064,44.84 77.152,44.264 L77.152,49.112 Z M77.008,40.248 C77.008,40.472 76.272,41.56 72.816,42.616 C69.536,43.608 65.184,44.152 60.544,44.152 C51.76,44.152 45.808,42.184 44.496,40.632 L44.464,39.256 L44.4,35.592 C45.568,36.184 46.784,36.648 48.048,36.984 C51.488,37.944 55.92,38.488 60.528,38.488 C65.392,38.488 70.032,37.912 73.6,36.856 C74.832,36.504 76.016,36.04 77.136,35.448 L77.136,39.56 L77.152,39.56 C77.152,39.768 77.008,40.008 77.008,40.248 Z" id="Shape"></path>
                    </g>
                </g>
            </g>
        </g>
    </g>
</svg>