<?xml version="1.0" encoding="UTF-8"?>
<svg width="99px" height="99px" viewBox="0 0 99 99" version="1.1" xmlns="http://www.w3.org/2000/svg" xmlns:xlink="http://www.w3.org/1999/xlink">
    <!-- Generator: Sketch 59 (86127) - https://sketch.com -->
    <title>translation</title>
    <desc>Created with Sketch.</desc>
    <g id="Page-1" stroke="none" stroke-width="1" fill="none" fill-rule="evenodd">
        <g id="Desktop-HD-Copy-4" transform="translate(-670.000000, -2654.000000)">
            <g id="Group-37" transform="translate(522.000000, 2613.000000)">
                <g id="translation" transform="translate(150.000000, 43.000000)">
                    <g id="Group-20">
                        <path d="M20.0389949,42.096875 C19.0702449,42.628125 18.7155575,43.84375 19.2468075,44.8125 C19.6108699,45.4757814 20.2960261,45.8515626 21.0022761,45.8515626 C21.3272761,45.8515626 21.6569637,45.771875 21.9624323,45.6046876 C26.4225887,43.1585938 29.8538387,39.3539062 31.8608699,34.8671876 C33.8686823,39.3539062 37.2991511,43.1585938 41.7593075,45.6046876 C42.0647761,45.771875 42.3944637,45.8515626 42.7194637,45.8515626 C43.4257137,45.8515626 44.1108699,45.4757814 44.4749323,44.8125 C45.0061823,43.84375 44.6514949,42.628125 43.6827449,42.096875 C38.4616511,39.2335938 34.9475887,34.1164062 34.0749323,28.334375 L42.9546199,28.334375 C44.0593075,28.334375 44.9546199,27.4390626 44.9546199,26.334375 C44.9546199,25.2296876 44.0593075,24.334375 42.9546199,24.334375 L33.8608699,24.334375 L33.8608699,16 C33.8608699,14.8953126 32.9655575,14 31.8608699,14 C30.7561823,14 29.8608699,14.8953126 29.8608699,16 L29.8608699,24.334375 L22.6358699,24.334375 C21.5311823,24.334375 20.6358699,25.2296876 20.6358699,26.334375 C20.6358699,27.4390626 21.5311823,28.334375 22.6358699,28.334375 L29.6468075,28.334375 C28.7741511,34.1164062 25.2600887,39.234375 20.0389949,42.096875 Z" id="Path" fill="#2FCC71" fill-rule="nonzero"></path>
                        <path d="M96.8,83.2 C96.8,85.6257812 94.8265624,87.6 92.4,87.6 L86.6,87.6 C85.4953124,87.6 84.6,88.4953124 84.6,89.6 L84.6,96.1789062 L74.721875,88.096875 C74.1773438,87.6 73.7007812,87.6 72.6296876,87.6 L44.3992188,87.6 C41.9734376,87.6 40,85.6257812 40,83.2 L40,64.8703124 C51.8304688,61.6757812 61.0476562,52.0554688 63.659375,40 L92.4,40 C94.8265624,40 96.8,41.9734376 96.8,44.4 L96.8,83.2 Z" id="Path" fill="#3498DA" fill-rule="nonzero"></path>
                        <text id="A" font-family="Quicksand-Light_Bold, Quicksand" font-size="32" font-weight="bold" fill="#000000">
                            <tspan x="59" y="73">A</tspan>
                        </text>
                        <path d="M31.5,64 C48.8969696,64 63,49.673112 63,32 C63,14.326888 48.8969696,0 31.5,0 C14.1030304,0 0,14.326888 0,32 C0,39.7671471 2.72401466,46.8879676 7.25448355,52.4303367 C8.69589053,54.1936882 3.06835416,62.2074093 4.19186607,62.9087781 C4.41719269,63.0494416 15.058463,58.904745 15.2223139,59.0107144 C19,61.4539062 27.1244725,64 31.5,64 Z" id="Oval" stroke="#000000" stroke-width="4" fill-rule="nonzero"></path>
                    </g>
                </g>
            </g>
        </g>
    </g>
</svg>
